<svg 
  xmlns="http://www.w3.org/2000/svg" 
  xmlns:xlink="http://www.w3.org/1999/xlink" 
  xml:space="preserve" 
  version="1.1" 
  style="shape-rendering:geometricPrecision;text-rendering:geometricPrecision;image-rendering:optimizeQuality;" 
  viewBox="0 0 182 167.5" 
  x="0px" 
  y="0px" 
  fill-rule="evenodd" 
  clip-rule="evenodd">
  <defs>
    <style type="text/css">
      .fil1 {fill:black}
      .fil0 {fill:black;fill-rule:nonzero}
    </style>
  </defs>
  <g>
    <path 
      class="fil0" 
      d="M66 75c50,6 116,16 116,25 0,7 -28,12 -109,14 -32,0 -49,4 -57,8 -8,6 10,11 14,12l-19 0c-30,-24 57,-28 62,-28 75,-2 92,-4 92,-6 0,-6 -134,-25 -165,-25l20 -12 4 7 8 -15 18 -12 14 10 17 -29 14 18 18 -25 54 58 -101 0z"
    />
    <path 
      class="fil1" 
      d="M24 0c13,0 23,11 23,24 0,7 -4,14 -10,18l-13 24 -14 -24c-6,-4 -10,-11 -10,-18 0,-13 11,-24 24,-24zm0 8c8,0 15,7 15,16 0,8 -7,15 -15,15 -9,0 -16,-7 -16,-15 0,-9 7,-16 16,-16z"
    />
  </g>
</svg>